<svg width="20" height="20" viewBox="0 0 20 20" fill="none" xmlns="http://www.w3.org/2000/svg">
<path d="M12.9167 3.33331H15C15.442 3.33331 15.866 3.50891 16.1785 3.82147C16.4911 4.13403 16.6667 4.55795 16.6667 4.99998V15.8333C16.6667 16.2753 16.4911 16.6993 16.1785 17.0118C15.866 17.3244 15.442 17.5 15 17.5H5C4.55798 17.5 4.13405 17.3244 3.82149 17.0118C3.50893 16.6993 3.33334 16.2753 3.33334 15.8333V4.99998C3.33334 4.55795 3.50893 4.13403 3.82149 3.82147C4.13405 3.50891 4.55798 3.33331 5 3.33331H7.08334" stroke="#434A85" stroke-width="1.5" stroke-linecap="round" stroke-linejoin="round"/>
<path d="M7.18416 2.92919C7.27429 2.56862 7.48235 2.24853 7.77527 2.01977C8.06819 1.79102 8.42917 1.66674 8.80083 1.66669H11.1983C11.57 1.66674 11.931 1.79102 12.2239 2.01977C12.5168 2.24853 12.7249 2.56862 12.815 2.92919L13.3333 5.00002H6.66666L7.18416 2.92919Z" stroke="#434A85" stroke-width="1.5" stroke-linecap="round" stroke-linejoin="round"/>
<path d="M7.5 10H12.5" stroke="#434A85" stroke-width="1.5" stroke-linecap="round" stroke-linejoin="round"/>
<path d="M7.5 13.3333H12.5" stroke="#434A85" stroke-width="1.5" stroke-linecap="round" stroke-linejoin="round"/>
</svg>
