<svg width="14" height="15" viewBox="0 0 14 15" fill="none" xmlns="http://www.w3.org/2000/svg">
<g clip-path="url(#clip0_282_113)">
<path d="M8.28331 9.98554C6.58494 9.2663 5.23436 7.91257 4.51906 6.21254L6.50239 4.2257L2.85072 0.571108L1.00097 2.42028C0.68014 2.74295 0.426476 3.12603 0.254656 3.54737C0.0828362 3.96871 -0.0037276 4.41994 -2.73346e-05 4.87495C-2.73346e-05 9.10296 5.39698 14.5 9.62498 14.5C10.0799 14.5038 10.5311 14.4173 10.9524 14.2455C11.3736 14.0737 11.7566 13.8199 12.0791 13.499L13.9288 11.6492L10.2742 7.99462L8.28331 9.98554ZM11.2548 12.6741C11.0403 12.8864 10.7857 13.0539 10.506 13.1671C10.2262 13.2802 9.92675 13.3367 9.62498 13.3333C5.98906 13.3333 1.16664 8.51087 1.16664 4.87495C1.1632 4.57327 1.2197 4.27391 1.33286 3.99423C1.44601 3.71455 1.61357 3.46012 1.82581 3.2457L2.85072 2.22078L4.85564 4.2257L3.14356 5.93778L3.28648 6.29595C3.7072 7.42139 4.36492 8.44324 5.21506 9.29228C6.06521 10.1413 7.08792 10.7977 8.2139 11.217L8.5674 11.3517L10.2742 9.64429L12.2791 11.6492L11.2548 12.6741ZM8.74998 4.30853V1.66661H9.91665V3.77303C10.3022 3.38628 10.7631 2.92253 11.2227 2.46053C12.0196 1.65903 12.8047 0.870358 13.1477 0.525024L13.9726 1.34986C13.6272 1.69519 12.8432 2.48269 12.0476 3.28303C11.5955 3.74036 11.1416 4.19828 10.7561 4.58328H12.8333V5.74995H10.2083C9.8239 5.75181 9.45444 5.60109 9.18104 5.33085C8.90763 5.06061 8.7526 4.69294 8.74998 4.30853Z" fill="#7775F8"/>
</g>
<defs>
<clipPath id="clip0_282_113">
<rect width="14" height="14" fill="white" transform="translate(0 0.5)"/>
</clipPath>
</defs>
</svg>
