<svg width="17" height="18" viewBox="0 0 17 18" fill="none" xmlns="http://www.w3.org/2000/svg">
<path d="M0.425575 13.5C1.04594 14.5767 2.42171 14.9466 3.49841 14.3262C3.49915 14.3258 3.49985 14.3254 3.50059 14.325L3.83433 14.1322C4.46433 14.6712 5.18847 15.0892 5.97031 15.3652V15.75C5.97031 16.9926 6.97768 18 8.22032 18C9.46295 18 10.4703 16.9926 10.4703 15.75V15.3652C11.2523 15.0888 11.9764 14.6703 12.6063 14.1307L12.9416 14.3242C14.0185 14.9456 15.3953 14.5762 16.0166 13.4992C16.6379 12.4223 16.2685 11.0455 15.1916 10.4242L14.8586 10.2322C15.0085 9.41657 15.0085 8.58041 14.8586 7.76472L15.1916 7.57273C16.2685 6.95141 16.6379 5.57469 16.0166 4.49771C15.3953 3.42077 14.0185 3.05139 12.9416 3.6727L12.6078 3.86546C11.9772 3.32712 11.2525 2.90988 10.4703 2.63475V2.25C10.4703 1.00737 9.46295 0 8.22032 0C6.97768 0 5.97031 1.00737 5.97031 2.25V2.63475C5.18837 2.91118 4.46419 3.32968 3.83433 3.86926L3.49908 3.67502C2.4221 3.05367 1.04538 3.42306 0.424063 4.5C-0.197254 5.57694 0.172098 6.9537 1.24907 7.57501L1.58207 7.767C1.43217 8.58266 1.43217 9.41882 1.58207 10.2345L1.24907 10.4265C0.175086 11.0495 -0.19307 12.4235 0.425575 13.5ZM8.22032 6.00001C9.87716 6.00001 11.2203 7.34316 11.2203 9C11.2203 10.6568 9.87716 12 8.22032 12C6.56347 12 5.22033 10.6568 5.22033 9C5.22033 7.34316 6.56347 6.00001 8.22032 6.00001Z" fill="#7775F8"/>
</svg>
