<svg width="24" height="24" viewBox="0 0 24 24" fill="none" xmlns="http://www.w3.org/2000/svg">
<path d="M12.5 16C12.8978 16 13.2794 16.158 13.5607 16.4393C13.842 16.7206 14 17.1022 14 17.5V18.3C14 19.0161 14.2845 19.7028 14.7908 20.2092C15.2972 20.7155 15.9839 21 16.7 21H18.3C19.0161 21 19.7028 20.7155 20.2092 20.2092C20.7155 19.7028 21 19.0161 21 18.3V5.7C21 4.98392 20.7155 4.29716 20.2092 3.79081C19.7028 3.28446 19.0161 3 18.3 3H16.7C15.9839 3 15.2972 3.28446 14.7908 3.79081C14.2845 4.29716 14 4.98392 14 5.7V6.5C14 6.89782 13.842 7.27936 13.5607 7.56066C13.2794 7.84196 12.8978 8 12.5 8C12.1022 8 11.7206 7.84196 11.4393 7.56066C11.158 7.27936 11 6.89782 11 6.5V5.7C11.0016 4.18875 11.6026 2.73986 12.6712 1.67125C13.7399 0.602632 15.1888 0.00158828 16.7 0L18.3 0C19.8112 0.00158828 21.2601 0.602632 22.3288 1.67125C23.3974 2.73986 23.9984 4.18875 24 5.7V18.3C23.9984 19.8112 23.3974 21.2601 22.3288 22.3288C21.2601 23.3974 19.8112 23.9984 18.3 24H16.7C15.1888 23.9984 13.7399 23.3974 12.6712 22.3288C11.6026 21.2601 11.0016 19.8112 11 18.3V17.5C11 17.1022 11.158 16.7206 11.4393 16.4393C11.7206 16.158 12.1022 16 12.5 16Z" fill="#7775F8"/>
<path d="M1.43899 9.52488L6.02499 4.93888C6.16432 4.79962 6.32972 4.68916 6.51174 4.61381C6.69377 4.53847 6.88885 4.49971 7.08584 4.49976C7.28285 4.4998 7.47791 4.53865 7.65989 4.61408C7.84188 4.68951 8.00723 4.80005 8.14649 4.93938C8.42775 5.22078 8.58571 5.60238 8.58562 6.00024C8.58557 6.19724 8.54673 6.3923 8.47129 6.57428C8.39586 6.75627 8.28533 6.92162 8.14599 7.06088L4.73499 10.4719L17 10.4999C17.3978 10.4999 17.7794 10.6579 18.0607 10.9392C18.342 11.2205 18.5 11.6021 18.5 11.9999C18.5 12.3977 18.342 12.7792 18.0607 13.0605C17.7794 13.3419 17.3978 13.4999 17 13.4999L4.68199 13.4719L8.14899 16.9389C8.43039 17.2201 8.58853 17.6017 8.58862 17.9995C8.58871 18.3974 8.43075 18.779 8.14949 19.0604C7.86823 19.3418 7.4867 19.4999 7.08885 19.5C6.69099 19.5001 6.30939 19.3422 6.02799 19.0609L1.44199 14.4749C0.786356 13.8182 0.417864 12.9284 0.417301 12.0005C0.416739 11.0726 0.784153 10.1823 1.43899 9.52488Z" fill="#7775F8"/>
</svg>
