<svg width="40" height="40" viewBox="0 0 40 40" fill="none" xmlns="http://www.w3.org/2000/svg">
<g clip-path="url(#clip0_93_2107)">
<path d="M9.0369 13.889L7.9939 12.189L14.7289 8.06201L15.7709 9.76801L9.0369 13.889ZM30.2739 24.217L26.1489 30.9L27.8489 31.951L31.9739 25.267L30.2739 24.217ZM28.9239 22.6L23.9999 30.583C23.7755 30.9631 23.4667 31.2865 23.0973 31.5282C22.728 31.77 22.308 31.9235 21.8699 31.977C21.7438 31.9923 21.6169 32 21.4899 32C21.1084 32.0003 20.7306 31.925 20.3784 31.7784C20.0262 31.6318 19.7065 31.4169 19.4379 31.146L18.4749 30.183C17.56 30.8234 16.4487 31.1209 15.3362 31.0234C14.2237 30.9258 13.1811 30.4394 12.3916 29.6495C11.6021 28.8597 11.1162 27.8169 11.0191 26.7044C10.9221 25.5918 11.2201 24.4807 11.8609 23.566L8.8529 20.557C8.54776 20.2519 8.31428 19.8827 8.16936 19.4762C8.02444 19.0698 7.97171 18.6362 8.01497 18.2068C8.05823 17.7775 8.19641 17.3631 8.4195 16.9937C8.64259 16.6243 8.94502 16.3092 9.3049 16.071L17.0669 11.321C18.5343 10.3805 20.259 9.92201 21.9998 10.0097C23.7405 10.0974 25.4104 10.7268 26.7759 11.81L28.6679 9.91801L30.0819 11.332L28.1819 13.232C29.2192 14.5446 29.8434 16.1356 29.9755 17.8033C30.1076 19.4711 29.7416 21.1405 28.9239 22.6ZM17.0099 28.718L13.3179 25.023C13.0433 25.5398 12.9427 26.1314 13.0312 26.7099C13.1197 27.2884 13.3924 27.8229 13.8089 28.234C14.2285 28.633 14.7606 28.8935 15.3332 28.98C15.9057 29.0666 16.4911 28.9751 17.0099 28.718ZM26.1299 13.9C25.0982 12.8603 23.7411 12.206 22.2852 12.0462C20.8292 11.8864 19.3625 12.2308 18.1299 13.022L10.3779 17.758C10.2718 17.8321 10.1834 17.9287 10.119 18.0409C10.0545 18.1531 10.0155 18.2781 10.0049 18.407C9.99046 18.5415 10.0065 18.6775 10.0519 18.8049C10.0972 18.9324 10.1707 19.0479 10.2669 19.143L20.8529 29.732C20.95 29.832 21.0694 29.9077 21.2013 29.9529C21.3332 29.998 21.4739 30.0115 21.6119 29.992C21.7501 29.9753 21.8825 29.9268 21.9987 29.8503C22.115 29.7738 22.2119 29.6713 22.2819 29.551L27.2019 21.578C27.8804 20.3552 28.1428 18.9448 27.9494 17.5598C27.756 16.1748 27.1174 14.8902 26.1299 13.9Z" fill="#7775F8"/>
</g>
<defs>
<clipPath id="clip0_93_2107">
<rect width="24" height="24" fill="white" transform="translate(8 8)"/>
</clipPath>
</defs>
</svg>
