<svg width="24" height="25" viewBox="0 0 24 25" fill="none" xmlns="http://www.w3.org/2000/svg">
<path fill-rule="evenodd" clip-rule="evenodd" d="M22 12.5C22 13.0304 21.7893 13.5391 21.4142 13.9142C21.0391 14.2893 20.5304 14.5 20 14.5C19.4696 14.5 18.9609 14.2893 18.5858 13.9142C18.2107 13.5391 18 13.0304 18 12.5C18 11.9696 18.2107 11.4609 18.5858 11.0858C18.9609 10.7107 19.4696 10.5 20 10.5C20.5304 10.5 21.0391 10.7107 21.4142 11.0858C21.7893 11.4609 22 11.9696 22 12.5Z" fill="black"/>
<path fill-rule="evenodd" clip-rule="evenodd" d="M14 12.5C14 13.0304 13.7893 13.5391 13.4142 13.9142C13.0391 14.2893 12.5304 14.5 12 14.5C11.4696 14.5 10.9609 14.2893 10.5858 13.9142C10.2107 13.5391 10 13.0304 10 12.5C10 11.9696 10.2107 11.4609 10.5858 11.0858C10.9609 10.7107 11.4696 10.5 12 10.5C12.5304 10.5 13.0391 10.7107 13.4142 11.0858C13.7893 11.4609 14 11.9696 14 12.5Z" fill="black"/>
<path fill-rule="evenodd" clip-rule="evenodd" d="M6 12.5C6 13.0304 5.78929 13.5391 5.41421 13.9142C5.03914 14.2893 4.53043 14.5 4 14.5C3.46957 14.5 2.96086 14.2893 2.58579 13.9142C2.21071 13.5391 2 13.0304 2 12.5C2 11.9696 2.21071 11.4609 2.58579 11.0858C2.96086 10.7107 3.46957 10.5 4 10.5C4.53043 10.5 5.03914 10.7107 5.41421 11.0858C5.78929 11.4609 6 11.9696 6 12.5Z" fill="black"/>
</svg>
