<svg width="24" height="24" viewBox="0 0 24 24" fill="none" xmlns="http://www.w3.org/2000/svg">
<path d="M12 13C13.1867 13 14.3467 12.6481 15.3334 11.9888C16.3201 11.3295 17.0892 10.3925 17.5433 9.2961C17.9974 8.19975 18.1162 6.99335 17.8847 5.82946C17.6532 4.66558 17.0818 3.59648 16.2426 2.75736C15.4035 1.91825 14.3344 1.3468 13.1705 1.11529C12.0067 0.88378 10.8003 1.0026 9.7039 1.45673C8.60754 1.91085 7.67047 2.67989 7.01118 3.66658C6.35189 4.65328 6 5.81332 6 7C6.00159 8.59082 6.63424 10.116 7.75911 11.2409C8.88399 12.3658 10.4092 12.9984 12 13ZM12 3C12.7911 3 13.5645 3.2346 14.2223 3.67412C14.8801 4.11365 15.3928 4.73837 15.6955 5.46927C15.9983 6.20017 16.0775 7.00444 15.9231 7.78036C15.7688 8.55629 15.3878 9.26902 14.8284 9.82843C14.269 10.3878 13.5563 10.7688 12.7804 10.9231C12.0044 11.0775 11.2002 10.9983 10.4693 10.6955C9.73836 10.3928 9.11365 9.88008 8.67412 9.22228C8.2346 8.56449 8 7.79113 8 7C8 5.93914 8.42143 4.92172 9.17157 4.17158C9.92172 3.42143 10.9391 3 12 3Z" fill="white"/>
<path d="M12 15C9.61386 15.0021 7.32622 15.7614 5.63896 17.1112C3.95171 18.461 3.00265 20.2911 3 22.2C3 22.4122 3.10536 22.6157 3.29289 22.7657C3.48043 22.9157 3.73478 23 4 23C4.26522 23 4.51957 22.9157 4.70711 22.7657C4.89464 22.6157 5 22.4122 5 22.2C5 20.7148 5.7375 19.2904 7.05025 18.2402C8.36301 17.19 10.1435 16.6 12 16.6C13.8565 16.6 15.637 17.19 16.9497 18.2402C18.2625 19.2904 19 20.7148 19 22.2C19 22.4122 19.1054 22.6157 19.2929 22.7657C19.4804 22.9157 19.7348 23 20 23C20.2652 23 20.5196 22.9157 20.7071 22.7657C20.8946 22.6157 21 22.4122 21 22.2C20.9974 20.2911 20.0483 18.461 18.361 17.1112C16.6738 15.7614 14.3861 15.0021 12 15Z" fill="white"/>
</svg>
